<svg width="666" height="196" viewBox="0 0 666 196" fill="none" xmlns="http://www.w3.org/2000/svg">
<path fill-rule="evenodd" clip-rule="evenodd" d="M26.8907 77.1416C15.6702 77.1416 6.57419 86.2376 6.57419 97.4581C6.57419 108.679 15.6702 117.775 26.8907 117.775C38.1112 117.775 47.2072 108.679 47.2072 97.4581C47.2072 86.2376 38.1112 77.1416 26.8907 77.1416ZM2.5991 97.4581C2.5991 84.0422 13.4748 73.1665 26.8907 73.1665C40.3066 73.1665 51.1823 84.0422 51.1823 97.4581C51.1823 110.874 40.3066 121.75 26.8907 121.75C13.4748 121.75 2.5991 110.874 2.5991 97.4581Z" fill="white"/>
<path fill-rule="evenodd" clip-rule="evenodd" d="M40.8001 62.547C21.5363 62.547 5.92 78.1633 5.92 97.427C5.92 116.691 21.5363 132.307 40.8001 132.307C60.0638 132.307 75.6802 116.691 75.6802 97.427C75.6802 78.1633 60.0638 62.547 40.8001 62.547ZM1.33336 97.427C1.33336 75.6302 19.0032 57.9603 40.8001 57.9603C62.597 57.9603 80.2668 75.6302 80.2668 97.427C80.2668 119.224 62.597 136.894 40.8001 136.894C19.0032 136.894 1.33336 119.224 1.33336 97.427Z" fill="white"/>
<path fill-rule="evenodd" clip-rule="evenodd" d="M60.3468 45.077C31.2401 45.077 7.6444 68.6727 7.6444 97.7794C7.6444 126.886 31.2401 150.482 60.3468 150.482C89.4535 150.482 113.049 126.886 113.049 97.7794C113.049 68.6727 89.4535 45.077 60.3468 45.077ZM1.52888 97.7794C1.52888 65.2952 27.8625 38.9615 60.3468 38.9615C92.831 38.9615 119.165 65.2952 119.165 97.7794C119.165 130.264 92.831 156.597 60.3468 156.597C27.8625 156.597 1.52888 130.264 1.52888 97.7794Z" fill="white"/>
<path fill-rule="evenodd" clip-rule="evenodd" d="M80.7921 24.7252C40.8159 24.7252 8.40884 57.1323 8.40884 97.1085C8.40884 137.085 40.8159 169.492 80.7921 169.492C120.768 169.492 153.175 137.085 153.175 97.1085C153.175 57.1323 120.768 24.7252 80.7921 24.7252ZM0.764441 97.1085C0.764441 52.9105 36.5941 17.0808 80.7921 17.0808C124.99 17.0808 160.82 52.9105 160.82 97.1085C160.82 141.307 124.99 177.136 80.7921 177.136C36.5941 177.136 0.764441 141.307 0.764441 97.1085Z" fill="white"/>
<path fill-rule="evenodd" clip-rule="evenodd" d="M98 9.17328C48.9424 9.17328 9.17328 48.9424 9.17328 98C9.17328 147.058 48.9424 186.827 98 186.827C147.058 186.827 186.827 147.058 186.827 98C186.827 48.9424 147.058 9.17328 98 9.17328ZM0 98C0 43.8761 43.8761 0 98 0C152.124 0 196 43.8761 196 98C196 152.124 152.124 196 98 196C43.8761 196 0 152.124 0 98Z" fill="white"/>
<path d="M658.654 146.63V53.2055H666V146.63H658.654Z" fill="white"/>
<path d="M558.203 146.63L596.732 53.2055H602.553L640.944 146.63H632.906L598.118 60.6027H601.029L565.964 146.63H558.203ZM574.973 119.096V112.658H624.174V119.096H574.973Z" fill="white"/>
<path d="M512.954 148C506.486 148 500.619 146.493 495.352 143.479C490.086 140.374 485.882 136.219 482.74 131.014C479.691 125.808 478.167 120.009 478.167 113.616C478.167 107.224 479.691 101.47 482.74 96.3562C485.882 91.242 490.086 87.1781 495.352 84.1644C500.619 81.0594 506.486 79.5069 512.954 79.5069C519.514 79.5069 525.428 81.0137 530.694 84.0274C535.961 87.0411 540.119 91.1507 543.168 96.3562C546.31 101.47 547.88 107.224 547.88 113.616C547.88 120.009 546.31 125.808 543.168 131.014C540.119 136.219 535.961 140.374 530.694 143.479C525.428 146.493 519.514 148 512.954 148ZM512.954 133.479C516.742 133.479 520.069 132.658 522.933 131.014C525.89 129.279 528.154 126.904 529.724 123.89C531.387 120.877 532.219 117.452 532.219 113.616C532.219 109.781 531.387 106.402 529.724 103.479C528.061 100.557 525.797 98.274 522.933 96.6302C520.069 94.895 516.742 94.0274 512.954 94.0274C509.258 94.0274 505.932 94.895 502.975 96.6302C500.111 98.274 497.847 100.557 496.184 103.479C494.613 106.402 493.828 109.781 493.828 113.616C493.828 117.452 494.613 120.877 496.184 123.89C497.847 126.904 500.111 129.279 502.975 131.014C505.932 132.658 509.258 133.479 512.954 133.479Z" fill="white"/>
<path d="M451.725 146.63V108.685C451.725 104.301 450.293 100.694 447.429 97.863C444.657 95.032 441.053 93.6164 436.618 93.6164C433.661 93.6164 431.028 94.2557 428.718 95.5342C426.408 96.8128 424.606 98.5936 423.313 100.877C422.019 103.16 421.372 105.763 421.372 108.685L415.413 105.397C415.413 100.374 416.522 95.9452 418.739 92.1096C420.957 88.1826 424.006 85.1233 427.886 82.9315C431.86 80.6484 436.295 79.5068 441.192 79.5068C446.181 79.5068 450.616 80.6027 454.497 82.7945C458.378 84.9863 461.427 88.0457 463.644 91.9726C465.862 95.8082 466.971 100.283 466.971 105.397V146.63H451.725ZM406.127 146.63V48H421.372V146.63H406.127Z" fill="white"/>
<path d="M369.218 148C362.658 148 356.698 146.493 351.339 143.479C346.073 140.466 341.915 136.356 338.866 131.151C335.816 125.945 334.292 120.146 334.292 113.753C334.292 107.269 335.816 101.47 338.866 96.3562C341.915 91.1507 346.073 87.0411 351.339 84.0274C356.698 81.0137 362.658 79.5069 369.218 79.5069C374.392 79.5069 379.197 80.5114 383.632 82.5206C388.16 84.4384 391.994 87.2238 395.136 90.8767L385.157 100.877C383.216 98.5936 380.86 96.9041 378.088 95.8082C375.409 94.621 372.452 94.0274 369.218 94.0274C365.43 94.0274 362.057 94.895 359.101 96.6302C356.236 98.274 353.972 100.557 352.309 103.479C350.739 106.402 349.953 109.826 349.953 113.753C349.953 117.589 350.739 121.014 352.309 124.027C353.972 126.95 356.236 129.279 359.101 131.014C362.057 132.658 365.43 133.479 369.218 133.479C372.452 133.479 375.409 132.932 378.088 131.836C380.86 130.648 383.216 128.913 385.157 126.63L395.136 136.63C391.994 140.283 388.16 143.114 383.632 145.123C379.197 147.041 374.392 148 369.218 148Z" fill="white"/>
<path d="M260 146.63V50.7397H275.939V146.63H260ZM270.949 146.63V132.247H325.279V146.63H270.949ZM270.949 104.575V90.7397H320.567V104.575H270.949ZM270.949 65.1233V50.7397H324.586V65.1233H270.949Z" fill="white"/>
</svg>
